<svg width="249" height="130" viewBox="0 0 249 130" xmlns="http://www.w3.org/2000/svg"><title>Artboard</title><g fill="#FFF" fill-rule="evenodd" opacity=".8"><path d="M73.35 86.282c.24-.29.4-.691.356-1.093-.343.014-.759.23-1.004.518-.22.257-.412.666-.361 1.059.382.03.772-.195 1.01-.484m1.3 4.897c-.283.417-.579.833-1.043.84-.455.01-.602-.27-1.123-.27s-.684.263-1.116.28c-.448.017-.788-.45-1.075-.866-.585-.849-1.031-2.4-.432-3.446.299-.52.83-.848 1.409-.857.44-.008.855.297 1.124.297.27 0 .773-.368 1.304-.314.221.01.845.09 1.246.678-.034.021-.745.436-.737 1.302.009 1.035.904 1.38.915 1.384-.009.023-.144.49-.472.972z"/><path d="M17.718 11.79h108.958a3.94 3.94 0 0 1 3.932 3.947v75.765a3.94 3.94 0 0 1-3.932 3.947H17.718a3.94 3.94 0 0 1-3.932-3.947V15.737a3.94 3.94 0 0 1 3.932-3.948zm-4.456 79.712c0 2.47 1.995 4.474 4.456 4.474h108.958c2.46 0 4.456-2.004 4.456-4.474V15.737c0-2.47-1.996-4.474-4.456-4.474H17.718c-2.46 0-4.456 2.004-4.456 4.474v75.765z" fill-rule="nonzero"/><path fill-rule="nonzero" d="M13.757 82.032l-.262.526h117.113l.262-.526zm111.35-64.612l-.105 59.877L19.81 77.19l.105-59.877 105.192.105zM19.705 77.296l105.402.105.105-60.088-105.402-.105-.105 60.088zm32.585 37.358h39.708c.58 0 1.153-.48 1.153-1.052v-1.578c0-.303-.204-.472-.479-.52-.1-.018-.2-.018-.294-.01-.023.002.027.527.027.527a.67.67 0 0 1 .178.001c.052.01.045 1.58.045 1.58 0 .257-.321.526-.63.526H52.29a.533.533 0 0 1-.524-.526h-.524c0 .578.478 1.052 1.048 1.052z"/><path d="M92.104 114.128H52.395c-.308 0-.629-.269-.629-.526v-1.578a1 1 0 0 1 .202-.006c.012.001.1-.518.1-.518a1.222 1.222 0 0 0-.347.004c-.275.048-.479.217-.479.52v1.578c0 .571.574 1.052 1.153 1.052h39.709c.57 0 1.047-.474 1.047-1.052h-.523a.533.533 0 0 1-.524.526z" fill-rule="nonzero"/><path d="M59.622 95.862l-.01.435c-.013.469-.034.991-.063 1.554a55.568 55.568 0 0 1-.434 4.711c-.307 2.196-.735 3.963-1.299 5.138-.135.283-.822.794-1.886 1.413-.29.169-.604.344-.94.525a54.065 54.065 0 0 1-2.962 1.472c-1.04.495-.887 1.177.262 1.177h39.815c1.146 0 1.292-.677.259-1.164l-.259-.117a53.124 53.124 0 0 1-2.706-1.335 27.57 27.57 0 0 1-1.091-.613c-.972-.578-1.595-1.063-1.73-1.354-.534-1.16-.895-2.948-1.104-5.186-.197-2.11-.24-4.337-.195-6.294.005-.24.01-.411.014-.5l-.523-.022c-.004.093-.01.266-.015.51-.045 1.975-.002 4.222.197 6.355.214 2.293.586 4.13 1.151 5.358.198.428.865.948 1.938 1.586.337.2.71.41 1.112.624a48.962 48.962 0 0 0 2.993 1.467c.166.078.29.154.362.216.044-.1.055-.108.023-.1-.09.027-.236.042-.426.042H52.29c-.19 0-.337-.015-.428-.042-.034-.01-.026-.004-.014.05.104-.022.229-.099.4-.18l.255-.119a60.005 60.005 0 0 0 2.734-1.368c.34-.183.66-.36.955-.532 1.172-.683 1.895-1.22 2.096-1.64.592-1.236 1.032-3.049 1.346-5.294a56.08 56.08 0 0 0 .438-4.757 63.402 63.402 0 0 0 .076-2.163l-.524-.005c0 .026 0 .078-.002.152zM72 15c.776 0 1-.224 1-1 0 .224-.224 0-1 0 .224 0 0 .224 0 0 0 .776.224 1 0 1z"/><path d="M171.48 111.554a2.105 2.105 0 0 0-2.094-2.116 2.105 2.105 0 0 0-2.095 2.116c0 1.169.938 2.116 2.095 2.116a2.105 2.105 0 0 0 2.094-2.116zm-3.665 0c0-.876.703-1.587 1.57-1.587.868 0 1.571.71 1.571 1.587s-.703 1.587-1.57 1.587c-.868 0-1.571-.71-1.571-1.587zm-23.561-69.61l.21-.212v66.649l-.21-.212h50.263l-.21.212V41.73l.21.212h-50.263zm50.263-.212v66.649h-50.263V41.73h50.263zm-52.881 70.884c0 1.166.936 2.112 2.09 2.112h51.319a2.1 2.1 0 0 0 2.09-2.112v-75.12a2.102 2.102 0 0 0-2.09-2.112h-51.319a2.1 2.1 0 0 0-2.09 2.112v75.12zm2.09-77.76h51.319c1.443 0 2.614 1.183 2.614 2.64v75.12c0 1.459-1.168 2.641-2.614 2.641h-51.319c-1.443 0-2.614-1.183-2.614-2.64v-75.12c0-1.46 1.169-2.642 2.614-2.642zm26.183 4.231c.29 0 .524-.237.524-.529a.526.526 0 0 0-.524-.529.526.526 0 0 0-.523.53c0 .291.234.528.523.528zm38.664 28.069l.208-.21v42.01l-.208-.21h23.388l-.208.21v-42.01l.208.21h-23.388zM232 67v42h-23V67h23zm-16.67-2.68a.522.522 0 0 0 .519-.525.522.522 0 0 0-.52-.525.522.522 0 0 0-.52.525c0 .29.233.525.52.525zm4.417-1.575a.26.26 0 0 0 .26-.262.261.261 0 0 0-.26-.263.261.261 0 0 0-.26.263.26.26 0 0 0 .26.262zm-2.339 1.313c0-.145.116-.263.265-.263h4.148c.146 0 .265.122.265.263a.262.262 0 0 1-.265.262h-4.148a.266.266 0 0 1-.265-.262zm4.418 47.786c0-1.16-.93-2.1-2.079-2.1a2.09 2.09 0 0 0-2.079 2.1c0 1.16.93 2.1 2.079 2.1a2.09 2.09 0 0 0 2.079-2.1zm-3.638 0c0-.87.698-1.576 1.559-1.576s1.56.706 1.56 1.576c0 .87-.699 1.575-1.56 1.575-.861 0-1.56-.705-1.56-1.575zm-10.655-.788c0 2.028 1.632 3.676 3.641 3.676h17.665c2.014 0 3.641-1.644 3.641-3.676v-47.26c0-2.029-1.63-3.677-3.64-3.677h-17.666c-2.013 0-3.64 1.645-3.64 3.676v47.261zm3.641-51.462h17.665c2.298 0 4.161 1.884 4.161 4.201v47.261c0 2.32-1.858 4.201-4.16 4.201h-17.666c-2.297 0-4.16-1.884-4.16-4.2V63.794c0-2.32 1.858-4.2 4.16-4.2zm-4.68 7.61c0-.143.12-.258.26-.258h.26v2.1h-.26a.257.257 0 0 1-.26-.257v-1.585zm0 4.73c0-.144.12-.262.26-.262h.26v4.201h-.26a.264.264 0 0 1-.26-.263v-3.675zm0 5.252c0-.145.12-.263.26-.263h.26v4.201h-.26a.264.264 0 0 1-.26-.263v-3.675z" fill-rule="nonzero"/></g></svg>