<svg width="358" height="365" viewBox="0 0 358 365" xmlns="http://www.w3.org/2000/svg" xmlns:xlink="http://www.w3.org/1999/xlink"><title>Artboard</title><defs><path d="M177.504 361c-26.11 0-49.905-5.124-71.388-15.37-21.482-10.248-39.825-23.718-55.028-40.411-15.203-16.693-27.019-35.783-35.446-57.269C7.214 226.464 3 204.317 3 181.508c0-23.139 4.38-45.45 13.137-66.937 8.759-21.486 20.987-40.41 36.686-56.773 15.699-16.363 34.29-29.42 55.772-39.17C130.078 8.875 153.543 4 178.992 4c26.11 0 49.905 5.124 71.388 15.37 21.482 10.248 39.825 23.8 55.028 40.66 15.203 16.858 26.936 36.03 35.198 57.516C348.87 139.032 353 160.848 353 182.996c0 23.139-4.38 45.451-13.137 66.937-8.759 21.487-20.904 40.41-36.438 56.773-15.534 16.363-34.042 29.502-55.524 39.419C226.418 356.042 202.953 361 177.504 361zM85.79 182.5c0 13.553 1.983 26.692 5.95 39.419 3.965 12.726 9.832 24.048 17.599 33.964 7.766 9.917 17.433 17.85 29 23.8 11.569 5.95 24.788 8.925 39.661 8.925 15.534 0 29.084-3.14 40.652-9.42 11.567-6.281 21.152-14.462 28.753-24.544 7.602-10.082 13.303-21.486 17.103-34.213 3.801-12.726 5.702-25.7 5.702-38.923 0-13.553-1.983-26.692-5.95-39.418-3.965-12.727-9.914-23.966-17.846-33.717-7.932-9.752-17.6-17.52-29.002-23.304-11.402-5.785-24.54-8.677-39.412-8.677-15.534 0-29.001 3.057-40.404 9.173-11.402 6.115-20.986 14.13-28.753 24.047-7.767 9.917-13.55 21.239-17.351 33.965-3.801 12.727-5.702 25.7-5.702 38.923z" id="a"/></defs><use fill="#E21356" opacity=".863" xlink:href="#a" fill-rule="evenodd"/></svg>