<svg width="466" height="481" viewBox="0 0 466 481" xmlns="http://www.w3.org/2000/svg"><title>Artboard</title><path d="M233 472c-32.903 0-63.226-6.53-91-20-26.976-12.65-50.35-29.818-70-51-19.095-21.37-34.152-45.699-45-73-10.63-27.468-16-55.694-16-85 0-29.255 5.58-57.692 17-85 10.901-27.46 26.484-51.58 46-72 20.493-21.288 44.183-37.93 72-50 26.933-12.786 56.835-19 89-19 33.535 0 63.857 6.53 91 20 27.607 12.65 50.981 29.924 70 51 19.727 21.896 34.678 46.33 45 74 10.736 27.1 16 54.905 16 83 0 29.623-5.58 58.06-17 85-10.901 27.829-26.379 51.948-46 73-19.967 20.656-43.551 37.403-71 50-27.301 12.68-57.203 19-90 19zM116 244c0 17.243 2.527 33.96 8 50 4.634 16.344 12.11 30.748 22 43 9.904 12.981 22.222 23.075 37 31 14.703 7.215 31.548 11 51 11 19.294 0 36.56-3.995 51-12 15.041-7.977 27.254-18.385 37-31 9.627-13.04 16.892-27.549 22-44 4.578-15.932 7-32.44 7-49 0-17.505-2.527-34.222-8-50-4.634-16.605-12.215-30.904-22-43-10.43-12.717-22.749-22.6-37-30-14.808-7.32-31.548-11-50-11-20.294 0-37.456 3.89-52 12-14.515 7.451-26.728 17.65-37 30-9.522 12.883-16.892 27.287-22 43-4.578 16.67-7 33.177-7 50z" fill="#FFF" fill-rule="evenodd" opacity=".798"/></svg>