<svg width="202" height="425" viewBox="0 0 202 425" xmlns="http://www.w3.org/2000/svg"><title>logo-blue-lrge</title><path d="M-7.09 425c-31.108 0-59.46-6.1-85.054-18.299-25.596-12.199-47.45-28.234-65.563-48.107-18.113-19.873-32.19-42.599-42.231-68.177C-209.98 264.837-215 238.472-215 211.319c0-27.546 5.217-54.108 15.652-79.687 10.435-25.579 25.004-48.108 43.708-67.587 18.705-19.48 40.854-35.023 66.449-46.632C-63.596 5.804-35.64 0-5.32 0c31.108 0 59.46 6.1 85.054 18.299 25.595 12.199 47.449 28.333 65.562 48.402 18.114 20.07 32.092 42.894 41.937 68.473C197.078 160.752 202 186.724 202 213.09c0 27.547-5.217 54.109-15.652 79.688-10.435 25.579-24.906 48.107-43.413 67.587-18.507 19.479-40.558 35.121-66.153 46.927C51.187 419.097 23.23 425-7.091 425zm-109.271-212.5c0 16.134 2.362 31.777 7.088 46.927 4.725 15.15 11.714 28.628 20.968 40.434 9.253 11.806 20.77 21.25 34.553 28.333C-39.97 335.278-24.22 338.82-6.5 338.82c18.507 0 34.651-3.738 48.433-11.215 13.782-7.477 25.202-17.216 34.258-29.219 9.057-12.002 15.85-25.578 20.378-40.729 4.528-15.15 6.792-30.596 6.792-46.337 0-16.134-2.362-31.776-7.088-46.927-4.725-15.15-11.813-28.53-21.263-40.139-9.45-11.608-20.968-20.856-34.553-27.743C26.872 89.624 11.22 86.18-6.5 86.18c-18.507 0-34.553 3.64-48.138 10.92-13.585 7.28-25.004 16.824-34.258 28.63-9.253 11.805-16.144 25.283-20.673 40.433-4.528 15.15-6.792 30.596-6.792 46.337z" fill="#38A2C6" fill-rule="evenodd" opacity=".099"/></svg>