<svg width="337" height="344" viewBox="0 0 337 344" xmlns="http://www.w3.org/2000/svg"><title>Artboard</title><path d="M167.037 337c-24.394 0-46.626-4.78-66.697-14.337-20.071-9.559-37.208-22.123-51.412-37.694-14.204-15.571-25.243-33.377-33.117-53.419C7.937 211.508 4 190.85 4 169.575c0-21.583 4.091-42.396 12.274-62.437C24.457 87.096 35.882 69.444 50.55 54.18c14.666-15.26 32.035-27.44 52.106-36.536C122.726 8.548 144.65 4 168.426 4c24.394 0 46.626 4.78 66.697 14.337 20.071 9.559 37.208 22.2 51.412 37.925 14.204 15.726 25.166 33.609 32.886 53.65 7.72 20.042 11.579 40.392 11.579 61.05 0 21.584-4.091 42.396-12.274 62.438s-19.53 37.694-34.043 52.956c-14.513 15.263-31.805 27.519-51.876 36.769-20.07 9.25-41.994 13.875-65.77 13.875zM81.35 170.5c0 12.642 1.853 24.898 5.558 36.769 3.705 11.87 9.186 22.431 16.443 31.681 7.256 9.25 16.288 16.65 27.095 22.2 10.808 5.55 23.159 8.325 37.054 8.325 14.513 0 27.173-2.93 37.98-8.788 10.808-5.858 19.762-13.489 26.864-22.893s12.429-20.042 15.98-31.913c3.55-11.87 5.326-23.973 5.326-36.306 0-12.642-1.853-24.898-5.558-36.769-3.705-11.87-9.263-22.354-16.674-31.45s-16.443-16.341-27.096-21.737c-10.653-5.396-22.927-8.094-36.822-8.094-14.513 0-27.096 2.852-37.749 8.556-10.653 5.704-19.607 13.181-26.864 22.431-7.256 9.25-12.66 19.81-16.21 31.682A125.989 125.989 0 0 0 81.35 170.5z" fill="#EFEFEF" fill-rule="evenodd" opacity=".429"/></svg>