<svg viewBox="0 0 72 72" xmlns="http://www.w3.org/2000/svg" fill-rule="evenodd" clip-rule="evenodd" stroke-linejoin="round" stroke-miterlimit="1.414"><g fill="#fff" fill-rule="nonzero"><path d="M43.358 27.334c0 4.972-2.06 7.458-5.043 8.382 2.983.852 5.186 3.337 5.186 8.31v7.673c0 7.244-3.694 9.801-8.169 9.801-4.476 0-8.099-2.557-8.099-9.801v-7.673c0-4.973 2.061-7.458 5.115-8.31-2.984-.924-4.972-3.41-4.972-8.382v-7.032c0-7.246 3.48-9.802 7.956-9.802 4.475 0 8.026 2.556 8.026 9.802v7.032zm21.75 0c0 4.972-2.06 7.458-5.042 8.382 2.982.852 5.185 3.337 5.185 8.31v7.673c0 7.244-3.694 9.801-8.169 9.801-4.474 0-8.099-2.557-8.099-9.801v-7.673c0-4.973 2.06-7.458 5.116-8.31-2.985-.924-4.973-3.41-4.973-8.382v-7.032c0-7.246 3.482-9.802 7.956-9.802 4.475 0 8.026 2.556 8.026 9.802v7.032zM17.251 45.75s0-32.313-3.75-35.25c-3.75 2.937-3.75 35.25-3.75 35.25h7.5zm-10.5 13.847s0-9.257-.75-10.097c-.75.84-.75 10.097-.75 10.097s.75.438 1.5 0m15 0s0-9.257-.75-10.097c-.75.84-.75 10.097-.75 10.097s.75.438 1.5 0m-12-13.847s0 15.75 3.75 15.75 3.75-15.75 3.75-15.75h-7.5z"/><path d="M13.501 38.25s-6.75 12.555-7.5 17.559v2.701l1.5-.01c.375-2.024 6-5.393 6-5.393V38.25z"/><path d="M13.501 38.25s6.75 12.555 7.5 17.559v2.701l-1.5-.01c-.375-2.024-6-5.393-6-5.393V38.25z"/></g></svg>