<svg viewBox="0 0 747 168" xmlns="http://www.w3.org/2000/svg" fill-rule="evenodd" clip-rule="evenodd" stroke-linejoin="round" stroke-miterlimit="1.414"><path fill="none" d="M0 0h746.606v167.153H0z"/><path d="M133.064 32.266h.004a48.458 48.458 0 0 1 34.263 14.191 48.458 48.458 0 0 1 14.191 34.263v52.675h-9.054c-22.025 0-39.904-21.513-39.904-48.009l.5-53.12zm101.034 0h-1.916a46.535 46.535 0 0 0-32.909 13.633 46.534 46.534 0 0 0-13.633 32.908v54.588h9.054c22.025 0 39.904-21.513 39.904-48.009l-.5-53.12zm117.796 0h.004a48.454 48.454 0 0 1 48.454 48.454v52.675h-9.05c-22.025 0-39.908-21.513-39.908-48.009l.5-53.12zm101.038 0h-2.205a46.252 46.252 0 0 0-46.258 46.25v54.879h9.054c22.025 0 39.909-21.513 39.909-48.009l-.5-53.12zm171.977 0h.554c26.246 0 47.521 21.387 47.521 47.77v53.088h-8.975c-21.854 0-39.596-21.454-39.596-47.879l.496-52.979zm101.043.269h-2.35a45.597 45.597 0 0 0-32.333 13.462c-8.579 8.621-13.392 20.313-13.392 32.504v54.892h8.983c21.846 0 39.588-21.454 39.588-47.879l-.496-52.979zM617.896 133.393h-13.313c-16.954 0-30.7-13.608-30.7-30.4V32.264h8.221c20.008 0 36.246 21.512 36.246 48.008l-.454 53.121zm-157.786 0h12.738c17.275 0 31.279-13.862 31.279-30.967V32.264h-8.225c-20.004 0-36.246 21.512-36.246 48.008l.454 53.121zm62.015 0c-7.575 0-13.712-6.079-13.712-13.575V32.264h8.221c8.471 0 16.262 3.854 22.437 10.312 6.171-6.458 13.967-10.312 22.434-10.312h8.229v83.646c0 4.637-1.863 9.083-5.175 12.362a17.751 17.751 0 0 1-12.134 5.117v.004h-30.3zM125.248 32.761v48.038H23.098v-8.975c0-21.833 21.729-39.558 48.492-39.558l53.658.495zM23.099 133.123V85.085h102.15v8.975c0 21.833-21.729 39.558-48.492 39.558l-53.658-.495zM344.071 32.611v48.187h-102.15v-8.975c0-21.833 21.729-39.558 48.491-39.558l53.659.346zM241.785 133.054V85.017h102.15v8.975c0 21.833-21.729 39.558-48.492 39.558l-53.658-.496z" fill="#fff"/></svg>