<svg viewBox="0 0 458 207" xmlns="http://www.w3.org/2000/svg" fill-rule="evenodd" clip-rule="evenodd" stroke-linejoin="round" stroke-miterlimit="1.414"><path d="M92.528 186.2c0-42.926 44.641-125.151 68.871-149.189 33.197 3.626 61.239 8.013 69.444 8.013 12.403 0 38.92-29.571 38.92-40.446 0-3.243-.573-4.578-2.097-4.578-1.339 0 .189 1.145-2.102 3.434-5.34 5.533-49.985 7.632-95.198 8.586-8.394-4.389-17.361-7.442-20.221-7.442-6.487 0-9.923 0-18.127 7.823H78.22c-29.57 0-60.67 4.579-74.215 18.124C1.335 33.197 0 37.965 0 43.688c0 18.507 13.162 47.313 34.532 47.313 46.359 0 54.943-29.379 54.943-31.477 0-1.337-.953-2.099-1.525-2.099-.383 0-.763.192-.763.954 0 7.44-27.283 16.98-49.412 16.98-14.88 0-27.283-4.389-27.283-16.599 0-20.985 32.241-27.09 72.117-27.09 11.064 0 22.512.573 34.339 1.335-20.794 32.433-49.03 90.812-51.51 127.823 0 15.26 15.832 45.403 25.372 45.403 1.718 0 4.578-3.05 4.578-4.958 0-.382-.19-.765-.379-.955-2.291-2.288-2.481-6.297-2.481-14.118" fill="#fff" fill-rule="nonzero"/><path d="M320.883 149.38c-6.296 0-10.682-4.199-10.682-9.35 0-6.294 4.579-10.681 11.827-10.681 1.146 0 1.525-.573 1.525-1.527 0-2.481-2.86-7.059-6.486-10.493l8.015-15.072c4.195 9.731 10.302 19.46 10.302 28.618 0 12.592-6.869 18.505-14.501 18.505m-99.777.763c-.573 0-.956-.573-.956-1.719 0-9.156 21.177-52.27 41.402-52.27 1.718 0 3.053 0 4.005-.383-13.928 11.639-43.116 54.372-44.451 54.372m-33.38-60.667c-4.009 19.459-17.171 28.617-21.37 28.617-3.243 0-4.005-1.335-4.768-1.718 6.487-12.4 16.216-23.847 26.138-26.899m237.316-3.626c-4.196 18.506-16.789 27.092-20.987 27.092-1.715 0-2.671-.381-3.433-.764 6.869-12.21 16.215-22.894 24.42-26.328m19.651 8.585c-1.145 0-1.528.573-1.528 1.336 0 .764.383 1.718.383 2.099-.383 21.558-24.23 57.613-41.971 57.613-5.344 0-9.922-4.388-9.922-13.735v-.572c0-8.011 3.053-17.17 7.442-25.945 1.908 1.335 4.768 2.67 8.394 2.67 19.458 0 36.247-33.768 36.436-42.543 0-3.434-4.957-4.77-9.536-4.77-2.863 0-5.723.763-7.059 1.717-4.961-4.96-12.592-9.73-21.559-9.921h-.19c-12.593 0-40.066 36.821-40.635 69.254v.573c0 .991.074 1.967.203 2.928a77.283 77.283 0 0 1-5.347 6.799c.762-2.67 1.335-5.722 1.335-9.346 0-13.355-18.124-24.039-18.124-37.203 0-17.742 16.216-20.031 18.503-20.031 2.101 0 3.247-2.862 3.247-4.007 0-1.144-8.777-17.17-20.608-17.17-11.637 0-23.274 18.505-23.274 32.623 0 3.053.573 5.915 1.528 8.967l-9.349 18.696c-1.336-.571-2.481-.952-3.626-.952-8.774 0-13.352 9.537-13.352 18.504 0 2.003.278 3.941.784 5.805-4.008 6.116-8.096 11.366-10.324 11.366-1.145 0-3.053-1.338-3.053-6.869 0-10.302 9.729-28.617 9.729-33.957 0-3.435-13.735-15.455-22.322-15.455-.763 0-1.525.383-2.287.764.189-.573.379-1.145.379-1.908 0-6.869-16.026-23.276-27.663-23.276-15.831 0-48.04 44.12-48.821 67.813-6.904 8.452-16.303 16.131-28.247 16.131-6.869 0-9.73-4.771-9.73-11.83 0-5.913 2.098-13.354 5.534-20.794 1.905 1.527 5.531 3.435 9.73 3.435 20.221 0 37.009-35.867 37.009-44.834 0-3.243-4.578-4.77-9.157-4.77-3.432 0-6.676.764-8.011 2.099-5.151-4.959-13.165-9.729-22.515-9.729-12.973 0-39.873 41.208-39.873 66.963 0 17.932 26.138 26.326 34.915 26.326 13.109 0 23.712-7.8 31.443-16.433 4.483 11.01 21.229 15.288 25.021 15.288 1.719 0 4.006-1.525 6.676-4.196 8.394-8.204 28.429-38.346 31.1-38.346 0 0-4.199 12.591-4.199 20.604 0 15.451 18.889 22.704 32.241 22.704 4.03 0 9.826-7.16 14.994-15.069 6.189 10.463 19.899 17.356 32.131 17.356 15.073 0 26.969-10.362 35.055-20.548 5.118 12.747 21.055 21.504 33.999 21.504 32.051 0 56.661-35.295 56.661-44.07 0-12.783-10.682-23.658-12.59-23.658m-294.565 86.223c0-2.099.262-3.449 1.875-3.449 1.612 0 1.874 1.35 1.874 3.449v2.55h5.362v-1.087c0-5.512-1.762-9.374-7.124-9.374-5.512 0-7.649 3.712-7.649 10.498v3.225c0 6.787 2.137 10.499 7.649 10.499 5.362 0 7.124-3.862 7.124-9.374v-1.087h-5.362v2.549c0 2.1-.262 3.45-1.874 3.45-1.613 0-1.875-1.35-1.875-3.45v-8.399zm14.135-7.611v23.622h11.886v-4.537h-6.374v-19.085h-5.512zm31.271 10.348c0-6.786-2.137-10.648-7.649-10.648-5.512 0-7.649 3.862-7.649 10.648v2.925c0 6.787 2.137 10.649 7.649 10.649 5.512 0 7.649-3.862 7.649-10.649v-2.925zm-9.599-2.662c0-2.099.338-3.524 1.95-3.524 1.612 0 1.95 1.425 1.95 3.524v8.249c0 2.1-.338 3.525-1.95 3.525-1.612 0-1.95-1.425-1.95-3.525v-8.249zm23.472 15.936v-19.085h4.612v-4.537h-14.585v4.537h4.499v19.085h5.474zm15.148 0v-9.749h3.9v9.749h5.511v-23.622h-5.511v9.374h-3.9v-9.374h-5.512v23.622h5.512zm14.811-23.622h5.512v23.622h-5.512zm20.659 10.873h-.15l-4.574-10.873h-5.024v23.622h5.099v-12.186h.15l5.437 12.186h4.162v-23.622h-5.1v10.873zm25.047 12.749v-12.186h-6.937v4.124h1.725v.338c0 2.099-.412 3.449-2.025 3.449-1.574 0-2.024-1.35-2.024-3.449v-8.287c0-2.099.337-3.449 1.949-3.449 1.613 0 1.95 1.35 1.95 3.449v1.575h5.362v-.6c0-5.512-1.95-8.886-7.312-8.886-5.399 0-7.611 3.712-7.611 10.498v3.225c0 6.787 1.987 10.499 6.674 10.499 1.875 0 3.562-.788 4.162-2.4l.412 2.1h3.675zm5.174-5.362h5.362v5.362h-5.362zm31.646.825h-6.562v-5.212h4.875v-4.499h-4.875v-4.837h6.562v-4.537h-11.961v23.622h11.961v-4.537zm4.649-3.45v.9c0 5.062 2.85 7.387 7.049 7.387 4.2 0 7.012-2.363 7.012-6.937 0-3.674-1.875-5.324-4.987-7.012l-2.212-1.199c-1.125-.6-1.8-1.35-1.8-2.55 0-1.275.6-2.1 1.762-2.1 1.35 0 1.95.938 1.95 2.85v.975h4.837v-.938c0-4.836-2.475-7.311-6.787-7.311-4.049 0-6.786 2.7-6.786 6.899 0 4.049 2.175 5.737 4.687 7.124l1.987 1.087c1.425.788 2.287 1.313 2.287 2.662 0 1.313-.675 2.025-1.95 2.025-1.462 0-2.212-1.162-2.212-2.924v-.938h-4.837zm27.859 7.987v-19.085h4.612v-4.537h-14.586v4.537h4.5v19.085h5.474zm6.862-5.362h5.362v5.362h-5.362zm30.483-5.024c1.612-1.988 2.925-3.787 2.925-6.825 0-4.311-2.363-6.711-7.087-6.711-5.062 0-7.011 3.112-7.011 7.611v1.575h5.249v-2.025c0-1.537.3-2.812 1.762-2.812 1.425 0 1.725 1.013 1.725 2.325 0 2.25-1.275 3.862-2.587 5.512l-6.149 7.799v3.937h13.985v-4.612h-7.499l4.687-5.774zm22.872-2.7c0-6.787-2.137-10.836-7.649-10.836-5.512 0-7.649 4.049-7.649 10.836v2.55c0 6.786 2.137 10.836 7.649 10.836 5.512 0 7.649-4.05 7.649-10.836v-2.55zm-9.636-2.775c0-2.099.375-3.599 1.987-3.599s1.987 1.5 1.987 3.599v8.099c0 2.1-.375 3.6-1.987 3.6s-1.987-1.5-1.987-3.6v-8.099zm14.023-.562h2.624v16.423h5.512v-23.66h-4.199c-.6 2.55-1.2 3.562-3.937 3.6v3.637zm26.771-7.199h-5.287l-8.586 14.885v4.012h8.586v4.725h5.287v-4.725h2.287v-4.274h-2.287v-14.623zm-5.287 7.386v7.237h-4.087l4.087-7.237z" fill="#fff" fill-rule="nonzero"/></svg>