<svg viewBox="0 0 800 600" xmlns="http://www.w3.org/2000/svg" fill-rule="evenodd" clip-rule="evenodd" stroke-linejoin="round" stroke-miterlimit="1.414"><path fill="none" d="M0 0h800v600H0z"/><clipPath id="a"><path d="M0 0h800v600H0z"/></clipPath><g clip-path="url(#a)" fill="#fff"><path d="M553.328 351.252c-12.272 14.736-23.055-.197-32.34-16.281-24.083-41.715-71.475-130.143-102.688-190.779l49.111-134.051c1.743-3.466 7.774-8.654 13.65-8.654 36.733 0 166.128.198 221.754.198 5.343 0 10.308 2.715 13.127 7.178a14.972 14.972 0 0 1 .722 14.752c-35.271 70.091-130.705 288.457-163.336 327.637z"/><path d="M548.684 362.51c1.299-.719-6.95 11.58-16.76 12.271-52.555 3.701-165.669 0-205.263 0-6.651 0-27.746 2.511-41.046-13.612C248.208 315.822 125.666 93.705 87.883 21.927c-2.513-4.774-2.759-10.022-.66-14.105 2.098-4.082 6.285-6.501 11.252-6.501h226.676c6.65 0 13.406 4.312 16.771 10.705 0 0 141.933 278.31 177.768 335.868 1.817 2.92 13.763 23.048 28.994 14.616z"/><path d="M122.648 598.335h3.067v-27.898h7.006v-2.777h-17.079v2.777h7.006v27.898zm13.43 0h3.068v-27.898h5.513c7.254 0 9.119 3.69 9.119 6.964 0 6.964-7.378 7.047-9.119 7.047h-2.446l10.405 13.887h3.813l-8.622-11.441c5.472-.373 9.037-4.228 9.037-9.202 0-2.529-.664-10.032-12.187-10.032h-8.581v30.675zm22.55 0h3.316l4.436-10.28h14.259l4.435 10.28h3.317L175.25 567.66h-3.399l-13.223 30.675zm8.954-13.058l5.969-14.052 5.886 14.052h-11.855zm24.332 13.058h3.068v-26.944l18.404 26.944h3.068V567.66h-3.068v25.452l-17.327-25.452h-4.145v30.675zm28.519-8.581c0 5.347 4.145 9.12 9.493 9.12 6.342 0 9.326-4.809 9.326-8.954 0-6.632-5.471-8.125-8.746-9.037-3.814-1.077-6.052-2.031-6.052-5.388 0-2.736 1.492-5.596 5.264-5.596 4.643 0 5.638 3.564 5.721 5.513h3.067c-.083-4.063-2.736-8.291-8.415-8.291-6.342 0-8.705 4.892-8.705 8.332 0 7.047 6.757 7.337 10.695 8.871 1.327.497 4.104 1.824 4.104 5.554 0 3.275-2.28 6.218-6.342 6.218-5.721 0-6.26-5.098-6.342-6.342h-3.068zm22.799 8.581h3.067v-14.011h12.021v-2.777h-12.021v-11.11h12.477v-2.777h-15.544v30.675zm35.027-31.214c-9.12 0-16.25 6.757-16.25 15.959 0 9.203 7.213 15.794 16.25 15.794 9.119 0 16.249-6.84 16.249-16.042 0-9.12-7.088-15.711-16.249-15.711zm.041 28.975c-7.378 0-13.223-5.306-13.223-13.016 0-7.627 5.72-13.181 13.223-13.181 7.379 0 13.14 5.305 13.14 12.933 0 7.668-5.679 13.264-13.14 13.264zm21.058 2.239h3.067v-27.898h5.513c7.254 0 9.12 3.69 9.12 6.964 0 6.964-7.379 7.047-9.12 7.047h-2.445l10.404 13.887h3.814l-8.622-11.441c5.471-.373 9.036-4.228 9.036-9.202 0-2.529-.663-10.032-12.187-10.032h-8.58v30.675zm25.161 0h3.068v-27.234l11.648 27.234h2.57l11.648-27.234v27.234h3.067V567.66h-4.725l-11.275 26.115-11.275-26.115h-4.726v30.675zm38.177-30.675h3.067v30.674h-3.067zm9.286 30.675h3.067v-26.944l18.405 26.944h3.067V567.66h-3.067v25.452l-17.327-25.452h-4.145v30.675zm41.203-14.135v2.777h17.12c-1.741 5.969-7.13 9.119-12.27 9.119-8.581 0-13.638-6.964-13.638-13.181 0-5.389 3.855-13.016 13.513-13.016 1.907 0 7.628.414 10.612 5.886h3.648c-2.57-5.721-7.917-8.664-14.26-8.664-10.155 0-16.58 7.296-16.58 15.752 0 8.125 6.01 16.001 16.58 16.001 8.705 0 15.255-5.97 16.084-14.674h-20.809zm35.276 14.135h3.067v-12.312h6.632c7.752 0 10.571-4.601 10.571-9.16 0-3.482-1.576-9.203-10.571-9.203h-9.699v30.675zm3.067-27.898h6.674c5.472 0 7.461 3.151 7.461 6.426 0 3.191-1.989 6.383-7.461 6.383h-6.674v-12.809zm36.395-3.316c-9.12 0-16.249 6.757-16.249 15.959 0 9.203 7.212 15.794 16.249 15.794 9.119 0 16.249-6.84 16.249-16.042 0-9.12-7.088-15.711-16.249-15.711zm.041 28.975c-7.378 0-13.223-5.306-13.223-13.016 0-7.627 5.721-13.181 13.223-13.181 7.379 0 13.141 5.305 13.141 12.933 0 7.668-5.679 13.264-13.141 13.264zm18.903-6.342c0 5.347 4.145 9.12 9.492 9.12 6.342 0 9.327-4.809 9.327-8.954 0-6.632-5.472-8.125-8.747-9.037-3.813-1.077-6.052-2.031-6.052-5.388 0-2.736 1.493-5.596 5.265-5.596 4.642 0 5.637 3.564 5.72 5.513h3.068c-.083-4.063-2.736-8.291-8.415-8.291-6.342 0-8.705 4.892-8.705 8.332 0 7.047 6.757 7.337 10.695 8.871 1.326.497 4.103 1.824 4.103 5.554 0 3.275-2.28 6.218-6.342 6.218-5.72 0-6.259-5.098-6.342-6.342h-3.067zm20.643 0c0 5.347 4.145 9.12 9.492 9.12 6.342 0 9.327-4.809 9.327-8.954 0-6.632-5.472-8.125-8.747-9.037-3.813-1.077-6.052-2.031-6.052-5.388 0-2.736 1.493-5.596 5.265-5.596 4.643 0 5.637 3.564 5.72 5.513h3.068c-.083-4.063-2.736-8.291-8.415-8.291-6.342 0-8.705 4.892-8.705 8.332 0 7.047 6.757 7.337 10.695 8.871 1.326.497 4.103 1.824 4.103 5.554 0 3.275-2.279 6.218-6.342 6.218-5.72 0-6.259-5.098-6.342-6.342h-3.067zm22.881-22.094h3.067v30.674h-3.067zm9.285 30.675h8.415c10.032 0 11.068-6.26 11.068-8.664 0-3.192-1.534-6.674-5.347-7.793 1.616-.995 3.689-2.818 3.689-6.135 0-7.71-6.964-8.083-10.156-8.083h-7.669v30.675zm3.068-2.778v-11.979h5.347c3.026 0 7.959.539 7.959 6.135 0 5.347-5.099 5.844-7.959 5.844h-5.347zm0-14.756v-10.364h4.601c2.238 0 7.088.125 7.088 5.182 0 4.726-4.518 5.182-7.088 5.182h-4.601zm20.809-13.141h3.067v30.674h-3.067zm9.285 30.675h15.752v-2.778h-12.685V567.66h-3.067v30.675zm19.234-30.675h3.067v30.674h-3.067zm13.513 30.675h3.068v-27.898h7.005v-2.777H618.58v2.777h7.005v27.898zm13.513-30.675h3.067v30.674h-3.067zm9.286 30.675h16.829v-2.778h-13.762v-11.275h13.306v-2.777h-13.306v-11.068h13.762v-2.777h-16.829v30.675zm20.062-8.581c0 5.347 4.146 9.12 9.493 9.12 6.342 0 9.327-4.809 9.327-8.954 0-6.632-5.472-8.125-8.747-9.037-3.813-1.077-6.052-2.031-6.052-5.388 0-2.736 1.493-5.596 5.265-5.596 4.642 0 5.637 3.564 5.72 5.513h3.068c-.083-4.063-2.736-8.291-8.415-8.291-6.342 0-8.705 4.892-8.705 8.332 0 7.047 6.757 7.337 10.695 8.871 1.326.497 4.103 1.824 4.103 5.554 0 3.275-2.28 6.218-6.342 6.218-5.72 0-6.259-5.098-6.342-6.342h-3.068zM132.939 427.42l27.02 78.999h.273l27.157-78.999h19.652l-39.167 103.835H152.59L113.287 427.42h19.652zm92.116 77.034l-10.781 26.801h-20.607l42.032-103.835h14.602l42.305 103.835H272l-10.781-26.801h-36.164zm6.277-18.101h23.2l-11.464-31.852h-.273l-11.463 31.852zm90.615-30.589v75.491h-18.696V427.42h21.289l41.759 75.491h.273V427.42h18.696v103.835h-20.88l-42.168-75.491h-.273zm89.386-28.344h18.696v103.835h-18.696zm36.028 17.961V427.42h56.225v17.961h-18.833v85.874h-18.696v-85.874h-18.696zm129.285-17.961v17.961h-35.618v25.397h34.117v17.961h-34.117v24.555h35.618v17.961h-54.314V427.42h54.314zm66.922 105.94c-9.279 0-17.968-2.432-26.065-7.297-8.097-4.864-14.557-11.459-19.378-19.784-4.822-8.326-7.233-17.447-7.233-27.362 0-9.542 2.342-18.406 7.028-26.591 4.685-8.185 11.054-14.733 19.105-19.644 8.052-4.911 16.763-7.367 26.134-7.367 10.19 0 19.651 2.853 28.385 8.559 8.734 5.707 15.148 13.424 19.242 23.153h-21.289c-3.821-4.49-7.915-7.905-12.282-10.243-4.367-2.339-9.28-3.508-14.738-3.508-5.914 0-11.395 1.707-16.445 5.121-5.049 3.415-9.052 7.882-12.009 13.401-2.957 5.519-4.435 11.319-4.435 17.399 0 6.174 1.524 12.044 4.572 17.61 3.047 5.566 7.141 10.056 12.282 13.471 5.14 3.414 10.712 5.121 16.717 5.121 4.822 0 9.234-1.005 13.237-3.017 4.003-2.011 8.052-5.355 12.146-10.032h21.698c-2.547 6.08-6.232 11.482-11.053 16.206-4.822 4.724-10.327 8.373-16.513 10.945-6.187 2.573-12.555 3.859-19.106 3.859z" fill-rule="nonzero"/></g></svg>