<svg viewBox="0 0 611 157" xmlns="http://www.w3.org/2000/svg" fill-rule="evenodd" clip-rule="evenodd" stroke-linejoin="round" stroke-miterlimit="1.414"><g fill="#fff" fill-rule="nonzero"><path d="M146.733 74.126c-.297 0-.562.031-.794.093-.233.062-.441.17-.625.323a2.05 2.05 0 0 0-.494.638c-.144.273-.276.62-.397 1.042h-.156v-2.269h7.542v2.269h-.157a5.397 5.397 0 0 0-.397-1.042 2.062 2.062 0 0 0-.493-.638 1.623 1.623 0 0 0-.625-.323 3.096 3.096 0 0 0-.794-.093h-.433v8.481h1.106v.174h-3.957v-.174h1.107v-8.481h-.433zm9.49-.173v.173h-1.107v4.068h3.476v-4.068h-1.106v-.173h3.957v.173h-1.107v8.482h1.107v.174h-3.957v-.174h1.106v-4.241h-3.476v4.241h1.107v.174h-3.958v-.174h1.107v-8.482h-1.107v-.173h3.958zm8.058 5.158h2.767l-1.42-3.385-1.347 3.385zm-1.588 3.497l3.585-9.002h.324l3.789 9.002h1.035v.173h-4.042v-.173h1.119l-1.395-3.323h-2.887l-1.335 3.323h1.07v.173h-2.273v-.173h1.01zm12.906-8.655v.173h-1.106v8.482h1.106v.174h-3.957v-.174h1.106v-8.482h-1.106v-.173h3.957zm4.402 0v.173h-1.107v8.482h1.985c.265 0 .531-.045.8-.136.268-.091.521-.242.758-.453.236-.211.448-.483.637-.818.188-.335.335-.742.439-1.222h.156v2.803h-7.626v-.174h1.107v-8.482h-1.107v-.173h3.958zm6.471 5.158h2.767l-1.42-3.385-1.347 3.385zm-1.588 3.497l3.585-9.002h.324l3.789 9.002h1.035v.173h-4.042v-.173h1.119l-1.395-3.323h-2.887l-1.335 3.323h1.07v.173h-2.273v-.173h1.01zm11.788-8.655l4.005 5.902h.024v-5.729h-1.106v-.173h2.406v.173h-1.107v8.656h-.325l-5.413-7.949h-.024v7.775h1.107v.174h-2.405v-.174h1.106v-8.482h-1.106v-.173h2.838zm9.237 8.692c.521 0 .966-.064 1.335-.192s.68-.302.932-.521c.253-.219.453-.469.602-.75.148-.281.26-.577.337-.887.076-.31.126-.62.15-.93a12.36 12.36 0 0 0-.085-2.691c-.08-.541-.238-1.004-.475-1.388a2.317 2.317 0 0 0-.998-.887c-.429-.207-.992-.31-1.69-.31-.16 0-.305.002-.433.006a1.847 1.847 0 0 0-.313.031v8.481c.233.025.446.038.638.038m-3.488-8.519v-.173h1.107c.408 0 .818-.007 1.226-.019a38.62 38.62 0 0 1 1.227-.019c.361 0 .742.025 1.143.075a6.31 6.31 0 0 1 1.191.266c.392.128.765.3 1.118.515.353.215.665.488.938.818.273.331.489.723.65 1.178.16.455.241.988.241 1.6 0 .603-.081 1.132-.241 1.587a3.92 3.92 0 0 1-.644 1.178 3.714 3.714 0 0 1-.92.819 5.25 5.25 0 0 1-1.076.514 5.778 5.778 0 0 1-1.107.266c-.365.05-.703.075-1.016.075-.457 0-.912-.004-1.366-.013a77.191 77.191 0 0 0-1.364-.012h-1.107v-.174h1.107v-8.481h-1.107zM.348 4.331h53.727c.313 0 .214 1.584 0 1.584H42.986s-3.102-.132-2.178 1.584c.188.35 37.952 103.626 37.952 103.626s.66 1.781 1.188 1.978L113.543 9.314c.343-1.028 1.537-3.333-.528-3.333h-12.144c-.215 0-.215-1.584 0-1.584h28.909c.214 0 .214 1.584 0 1.584h-10.758c-2.951-.058-2.971.851-3.499 2.376-.266.771-46.73 145.602-46.73 145.602l-.396-1.188C48.757 95.933 18.266 16.857 15.859 8.423c-.722-2.529-1.09-2.448-2.574-2.442-.529.002-12.558 0-12.937 0-.379 0-.33-1.65 0-1.65"/><path d="M177.211 155.633c31.349.109 65.275-34.607 65.357-77.563.087-44.989-32.525-77.034-64.826-77.299-33.051-.272-64.761 36.023-64.761 77.299 0 42.69 29.962 77.444 64.23 77.563M140.19 77.274c0-41.448 7.956-75.326 37.346-75.314 31.601.014 37.81 35.281 37.81 75.314 0 41.447-6.031 77.203-37.545 77.17-33.835-.036-37.611-33.602-37.611-77.17m191.121 14.42h12.271s2.28-.242 2.258.861l-.003 35.092c0 26.998-26.903 27.301-34.509 26.44-28.126-3.186-28.716-61.255-28.856-76.507-.382-41.446 6.127-77.545 34.427-76.11 33.608 1.704 42.395 49.857 42.934 52.016 1.116.398 1.128-.531 1.128-.531L361.028.42s-.23-.443-.893.17c-.237.226-.513.498-.832.824C344.435 16.609 336.991.713 315.38.015c-26.619-.859-59.693 36.047-60.117 78.625-.426 42.845 27.705 75.865 58.459 77.034 16.677.635 16.318-4.005 36.892-10.382 12.58-3.901 18.507 4.576 18.97 8.091.797.532.864-.398.864-.398v-60.23c0-1.194 1.658-.995 1.658-.995h11.343c.282 0 .282-1.659 0-1.659h-52.204c-.383 0-.383 1.593.066 1.593M607.018 4.313v53.968c0 .265-1.06.331-1.06 0 0-.33.994-52.438-47.376-52.438h-18.14c-1.017 0-1.627.18-1.627.96v67.413c0 .631.634.971 1.597.971h6.062c28.785 0 26.468-28.883 26.468-29.213 0-.331 1.124-.265 1.124 0l.061 60.907c0 .264-.855.33-.855 0s-.661-30.106-27.459-30.106h-5.401c-.93 0-1.597.344-1.597.983v72.547c0 .51.615.977 1.627.979 4.056.013 14.507.045 17.406.052 51.983.131 51.287-55.67 51.287-55.935 0-.265 1.323-.265 1.323 0v57.797H500.752c-.33 0-.297-1.588 0-1.588h10.965c.978 0 1.608-.336 1.608-.975.002-12.58.015-142.686 0-143.772-.014-.93-1.218-.989-1.608-.989l-24.277-.002s-1.584.012-1.584.923c-.001 10.228-.008 96.555-.002 108.84v.057c.06 30.439-23.336 40.365-40.168 40.648l-.026-.048c-19.8.099-55.377-3.241-55.377-47.125 0 0-.089-99.865-.132-101.25-.066-2.177-2.768-2.066-2.768-2.066l-11.621.021c-.362 0-.297-1.584 0-1.584h54.783c.297 0 .199 1.584 0 1.584l-11.651-.001s-3.596-.209-3.596 2.179c0 3.366.067 111.413.067 115.24 0 16.845 9.534 31.767 30.295 31.418 16.18-.272 38.67-9.813 38.612-39.073-.016-1.429-.002-97.985 0-108.84-.067-.844-1.716-.923-1.716-.923h-15.215c-.329 0-.267-1.522.063-1.522l139.614-.037M4.727 10.454c-.171-.756-.72-.909-1.233-.909-.874 0-1.441.594-1.441 1.594 0 .999.567 1.593 1.441 1.593.513 0 1.062-.153 1.233-.909h.495c-.081.72-.765 1.368-1.728 1.368-1.18 0-1.936-.882-1.936-2.052 0-1.171.756-2.053 1.936-2.053.963 0 1.647.648 1.728 1.368h-.495zm-4.231.693c0 1.63 1.296 2.98 2.943 2.98 1.621 0 2.944-1.323 2.944-2.98 0-1.611-1.278-2.98-2.944-2.98-1.674 0-2.943 1.369-2.943 2.98m6.382 0a3.442 3.442 0 0 1-3.429 3.439A3.44 3.44 0 0 1 0 11.147a3.441 3.441 0 0 1 3.449-3.439 3.437 3.437 0 0 1 3.429 3.439"/></g></svg>